<svg width="94" height="94" viewBox="0 0 94 94" fill="none" xmlns="http://www.w3.org/2000/svg">
<path d="M72.3173 8.27983C71.6848 7.94718 70.9732 7.79429 70.2599 7.83779C69.5465 7.88129 68.8588 8.11953 68.2714 8.52658L17.3547 43.7766C16.836 44.1386 16.4124 44.6205 16.1198 45.1814C15.8273 45.7423 15.6746 46.3655 15.6746 46.998C15.6746 47.6306 15.8273 48.2538 16.1198 48.8147C16.4124 49.3755 16.836 49.8575 17.3547 50.2195L68.2714 85.4695C68.859 85.8761 69.5466 86.1142 70.2598 86.158C70.973 86.2018 71.6846 86.0497 72.3176 85.7181C72.9505 85.3865 73.4807 84.888 73.8507 84.2767C74.2207 83.6654 74.4164 82.9646 74.4166 82.25V11.75C74.4168 11.0351 74.2212 10.3337 73.8511 9.72202C73.4811 9.11031 72.9506 8.61156 72.3173 8.27983ZM66.5833 74.7731L26.4649 47L66.5833 19.2269V74.7731Z" fill="black"/>
</svg>
