<svg width="94" height="94" viewBox="0 0 94 94" fill="none" xmlns="http://www.w3.org/2000/svg">
<path d="M21.6827 85.7202C22.3152 86.0528 23.0268 86.2057 23.7401 86.1622C24.4535 86.1187 25.1412 85.8805 25.7286 85.4734L76.6453 50.2234C77.164 49.8614 77.5876 49.3795 77.8802 48.8186C78.1727 48.2577 78.3254 47.6345 78.3254 47.002C78.3254 46.3694 78.1727 45.7462 77.8802 45.1853C77.5876 44.6245 77.164 44.1425 76.6453 43.7805L25.7286 8.53049C25.141 8.12391 24.4534 7.88583 23.7402 7.84201C23.027 7.7982 22.3154 7.95033 21.6824 8.28193C21.0495 8.61354 20.5193 9.11198 20.1493 9.72328C19.7793 10.3346 19.5836 11.0354 19.5834 11.75L19.5834 82.25C19.5832 82.9649 19.7788 83.6663 20.1489 84.278C20.5189 84.8897 21.0494 85.3884 21.6827 85.7202ZM27.4167 19.2269L67.5351 47L27.4167 74.7731L27.4167 19.2269Z" fill="black"/>
</svg>
